{"title":"Ghost.Rider.Spirit.of.Vengeance.2012.TS.XviD[LEAKED] - ILLUMINAT","uid":7050874,"size":1488755489,"categoryP":"video","categoryS":"movies","magnet":"?xt=urn:btih:82d77cde8a9182db6ccd9957a5ae24b4d32aa221&amp;dn=Ghost.Rider.Spirit.of.Vengeance.2012.TS.XviD%5BLEAKED%5D+-+ILLUMINAT&amp;tr=udp%3A%2F%2Ftracker.openbittorrent.com%3A80&amp;tr=udp%3A%2F%2Fopen.demonii.com%3A1337&amp;tr=udp%3A%2F%2Ftracker.coppersurfer.tk%3A6969&amp;tr=udp%3A%2F%2Fexodus.desync.com%3A6969","seeders":5,"leechers":0,"uploader":"SaM","files":4,"time":1329948578,"description":"[img]http://img851.imageshack.us/img851/9255/csnrr.jpg[/img]\n\nGhost Rider Spirit of Vengeance 2012 TS XviD - ILLUMINATI\n\n\n &lt;a href=&quot; http://www.imdb.com/title/tt1071875/&quot; rel=&quot;nofollow&quot; target=&quot;_NEW&quot;&gt; http://www.imdb.com/title/tt1071875/&lt;/a&gt;\n\n\n\nSources - Thanks \n\n\n\nVideo\n\nID                               : 0\n\nFormat                           : MPEG-4 Visual\n\nFormat profile                   : Advanced Simple@L5\n\nFormat settings, BVOP            : 2\n\nFormat settings, QPel            : No\n\nFormat settings, GMC             : No warppoints\n\nFormat settings, Matrix          : Default (H.263)\n\nMuxing mode                      : Packed bitstream\n\nCodec ID                         : XVID\n\nCodec ID/Hint                    : XviD\n\nDuration                         : 1h 28mn\n\nBit rate                         : 2 089 Kbps\n\nWidth                            : 720 pixels\n\nHeight                           : 288 pixels\n\nDisplay aspect ratio             : 2.500\n\nFrame rate                       : 23.976 fps\n\nColor space                      : YUV\n\nChroma subsampling               : 4:2:0\n\nBit depth                        : 8 bits\n\nScan type                        : Progressive\n\nCompression mode                 : Lossy\n\nBits/(Pixel*Frame)               : 0.420\n\nStream size                      : 1.29 GiB (94%)\n\nWriting library                  : XviD 64\n\n\n\nAudio\n\nID                               : 1\n\nFormat                           : MPEG Audio\n\nFormat version                   : Version 1\n\nFormat profile                   : Layer 3\n\nMode                             : Joint stereo\n\nMode extension                   : MS Stereo\n\nCodec ID                         : 55\n\nCodec ID/Hint                    : MP3\n\nDuration                         : 1h 28mn\n\nBit rate mode                    : Constant\n\nBit rate                         : 128 Kbps\n\nChannel(s)                       : 2 channels\n\nSampling rate                    : 44.1 KHz\n\nCompression mode                 : Lossy\n\nStream size                      : 80.7 MiB (6%)\n\nAlignment                        : Split accross interleaves\n\nInterleave, duration             : 42 ms (1.00 video frame)\n\n\n\nNotes -\n\nNothing you need to know other than its very nice \n\n &lt;a href=&quot;\nhttp://www.shotpix.com/images/23679065689053834253.png&quot; rel=&quot;nofollow&quot; target=&quot;_NEW&quot;&gt;\nhttp://www.shotpix.com/images/23679065689053834253.png&lt;/a&gt; &lt;a href=&quot;\nhttp://www.shotpix.com/images/60628729213024108454.png&quot; rel=&quot;nofollow&quot; target=&quot;_NEW&quot;&gt;\nhttp://www.shotpix.com/images/60628729213024108454.png&lt;/a&gt; &lt;a href=&quot;\nhttp://www.shotpix.com/images/23470097699737538888.png&quot; rel=&quot;nofollow&quot; target=&quot;_NEW&quot;&gt;\nhttp://www.shotpix.com/images/23470097699737538888.png&lt;/a&gt; &lt;a href=&quot;\nhttp://www.shotpix.com/images/41505682362764139584.png&quot; rel=&quot;nofollow&quot; target=&quot;_NEW&quot;&gt;\nhttp://www.shotpix.com/images/41505682362764139584.png&lt;/a&gt; &lt;a href=&quot;\nhttp://www.shotpix.com/images/27404190265083342883.png&quot; rel=&quot;nofollow&quot; target=&quot;_NEW&quot;&gt;\nhttp://www.shotpix.com/images/27404190265083342883.png&lt;/a&gt; &lt;a href=&quot;\nhttp://www.shotpix.com/images/34433394836993863084.png&quot; rel=&quot;nofollow&quot; target=&quot;_NEW&quot;&gt;\nhttp://www.shotpix.com/images/34433394836993863084.png&lt;/a&gt; &lt;a href=&quot;\nhttp://www.shotpix.com/images/85546246305409760431.png&quot; rel=&quot;nofollow&quot; target=&quot;_NEW&quot;&gt;\nhttp://www.shotpix.com/images/85546246305409760431.png&lt;/a&gt; &lt;a href=&quot;\nhttp://www.shotpix.com/images/99368293057377258726.png&quot; rel=&quot;nofollow&quot; target=&quot;_NEW&quot;&gt;\nhttp://www.shotpix.com/images/99368293057377258726.png&lt;/a&gt;","torrent":{"xt":"urn:btih:82d77cde8a9182db6ccd9957a5ae24b4d32aa221","amp;dn":"Ghost.Rider.Spirit.of.Vengeance.2012.TS.XviD%5BLEAKED%5D+-+ILLUMINAT","amp;tr":["udp%3A%2F%2Ftracker.openbittorrent.com%3A80","udp%3A%2F%2Fopen.demonii.com%3A1337","udp%3A%2F%2Ftracker.coppersurfer.tk%3A6969","udp%3A%2F%2Fexodus.desync.com%3A6969"],"infoHash":"82d77cde8a9182db6ccd9957a5ae24b4d32aa221","infoHashBuffer":{"type":"Buffer","data":[130,215,124,222,138,145,130,219,108,205,153,87,165,174,36,180,211,42,162,33]},"announce":[],"urlList":[]}}